<svg xmlns="http://www.w3.org/2000/svg" xmlns:xlink="http://www.w3.org/1999/xlink" width="101" zoomAndPan="magnify" viewBox="0 0 75.75 30.000001" height="40" preserveAspectRatio="xMidYMid meet" version="1.0"><defs><clipPath id="1b443eba3f"><path d="M 22.210938 5.679688 L 34 5.679688 L 34 10 L 22.210938 10 Z M 22.210938 5.679688 " clip-rule="nonzero"/></clipPath><clipPath id="41eebed44f"><path d="M 22.210938 10 L 33 10 L 33 21 L 22.210938 21 Z M 22.210938 10 " clip-rule="nonzero"/></clipPath><clipPath id="4f796a9664"><path d="M 62 10 L 71.285156 10 L 71.285156 20 L 62 20 Z M 62 10 " clip-rule="nonzero"/></clipPath></defs><g clip-path="url(#1b443eba3f)"><path fill="#fdaf27" d="M 31.53125 5.714844 C 30.777344 5.5625 29.996094 5.917969 29.597656 6.597656 C 29.503906 6.757812 29.4375 6.929688 29.394531 7.105469 C 29.21875 6.417969 28.667969 5.855469 27.96875 5.714844 C 27.214844 5.5625 26.429688 5.917969 26.035156 6.597656 C 25.941406 6.757812 25.875 6.929688 25.832031 7.105469 C 25.65625 6.417969 25.105469 5.855469 24.40625 5.714844 C 23.652344 5.5625 22.867188 5.917969 22.472656 6.597656 C 22.074219 7.273438 22.136719 8.164062 22.625 8.777344 C 23.117188 9.386719 23.945312 9.625 24.671875 9.355469 C 25.25 9.144531 25.679688 8.636719 25.832031 8.039062 C 25.894531 8.304688 26.015625 8.558594 26.191406 8.777344 C 26.679688 9.386719 27.511719 9.625 28.234375 9.355469 C 28.8125 9.144531 29.246094 8.636719 29.394531 8.039062 C 29.460938 8.304688 29.578125 8.558594 29.753906 8.777344 C 30.242188 9.386719 31.074219 9.625 31.800781 9.355469 C 32.523438 9.089844 33.015625 8.363281 33.015625 7.574219 C 33.015625 6.679688 32.386719 5.886719 31.53125 5.714844 Z M 31.53125 5.714844 " fill-opacity="1" fill-rule="nonzero"/></g><g clip-path="url(#41eebed44f)"><path fill="#fdaf27" d="M 25.652344 14.917969 C 25.839844 15.742188 26.316406 16.511719 27.152344 16.746094 C 27.945312 16.96875 28.832031 16.605469 29.238281 15.867188 C 29.484375 15.421875 29.453125 14.921875 29.453125 14.429688 C 29.449219 14.097656 29.449219 13.769531 29.449219 13.4375 C 29.449219 13.074219 29.449219 12.710938 29.449219 12.34375 C 29.453125 11.878906 29.441406 11.425781 29.667969 11.003906 C 29.976562 10.417969 30.597656 10.058594 31.246094 10.082031 C 31.902344 10.109375 32.5 10.53125 32.757812 11.152344 C 32.929688 11.5625 32.902344 12.007812 32.902344 12.445312 C 32.90625 12.808594 32.90625 13.167969 32.90625 13.53125 C 32.90625 14.308594 32.953125 15.121094 32.804688 15.890625 C 32.464844 17.667969 31.265625 19.214844 29.644531 19.925781 C 28.023438 20.636719 26.101562 20.449219 24.640625 19.433594 C 23.921875 18.933594 23.328125 18.242188 22.933594 17.445312 C 22.550781 16.652344 22.316406 15.667969 22.460938 14.78125 C 22.574219 14.121094 23.082031 13.582031 23.71875 13.449219 C 24.378906 13.308594 25.074219 13.625 25.417969 14.222656 C 25.542969 14.4375 25.597656 14.671875 25.652344 14.917969 Z M 25.652344 14.917969 " fill-opacity="1" fill-rule="nonzero"/></g><g clip-path="url(#4f796a9664)"><path fill="#000000" d="M 71.171875 14.792969 C 71.171875 17.207031 69.257812 19.136719 66.839844 19.136719 C 64.4375 19.136719 62.554688 17.222656 62.554688 14.792969 C 62.554688 12.363281 64.4375 10.46875 66.855469 10.46875 C 69.257812 10.46875 71.171875 12.378906 71.171875 14.792969 Z M 64.78125 14.808594 C 64.78125 16.117188 65.65625 17.054688 66.855469 17.054688 C 68.042969 17.054688 68.933594 16.101562 68.933594 14.808594 C 68.933594 13.503906 68.039062 12.53125 66.855469 12.53125 C 65.65625 12.53125 64.78125 13.484375 64.78125 14.808594 Z M 64.78125 14.808594 " fill-opacity="1" fill-rule="nonzero"/></g><path fill="#000000" d="M 36.515625 16.425781 C 36.925781 16.667969 37.316406 16.914062 37.804688 16.886719 C 38.273438 16.855469 38.699219 16.605469 38.964844 16.207031 C 39.214844 15.835938 39.207031 15.414062 39.207031 14.988281 C 39.207031 14.265625 39.207031 9.324219 39.207031 8.964844 C 39.207031 8.71875 39.195312 8.472656 39.289062 8.234375 C 39.5625 7.53125 40.453125 7.304688 41.015625 7.796875 C 41.3125 8.058594 41.398438 8.421875 41.398438 8.808594 C 41.398438 9.585938 41.421875 14.96875 41.394531 15.503906 C 41.34375 16.464844 40.921875 17.398438 40.253906 18.070312 C 39.5625 18.769531 38.617188 19.152344 37.65625 19.152344 C 36.730469 19.152344 35.753906 18.785156 35.148438 18.039062 C 34.90625 17.738281 34.765625 17.382812 34.859375 16.992188 C 34.953125 16.613281 35.25 16.308594 35.617188 16.222656 C 35.953125 16.140625 36.234375 16.257812 36.515625 16.425781 Z M 36.515625 16.425781 " fill-opacity="1" fill-rule="nonzero"/><path fill="#000000" d="M 51.695312 17.121094 C 51.359375 16.910156 51.152344 16.535156 51.144531 16.128906 L 51.144531 11.601562 C 51.144531 10.976562 50.65625 10.46875 50.050781 10.46875 C 49.496094 10.46875 49.039062 10.894531 48.964844 11.445312 C 48.414062 10.832031 47.578125 10.46875 46.574219 10.46875 C 44.316406 10.46875 42.679688 12.296875 42.679688 14.8125 C 42.679688 17.324219 44.316406 19.152344 46.574219 19.152344 C 46.582031 19.152344 46.59375 19.152344 46.601562 19.152344 C 46.613281 19.152344 46.625 19.152344 46.632812 19.152344 C 47.714844 19.152344 48.65625 18.730469 49.339844 18.015625 C 49.6875 18.578125 50.253906 18.992188 50.929688 19.117188 C 50.996094 19.128906 51.058594 19.136719 51.125 19.136719 C 51.128906 19.136719 51.132812 19.132812 51.136719 19.132812 C 51.140625 19.132812 51.148438 19.132812 51.152344 19.132812 C 51.730469 19.132812 52.203125 18.648438 52.203125 18.050781 C 52.203125 17.65625 52 17.3125 51.695312 17.121094 Z M 46.976562 17.089844 C 45.761719 17.089844 44.902344 16.136719 44.902344 14.8125 C 44.902344 13.484375 45.777344 12.515625 46.976562 12.515625 C 48.179688 12.515625 49.007812 13.453125 49.007812 14.8125 C 49.007812 16.167969 48.195312 17.089844 46.976562 17.089844 Z M 46.976562 17.089844 " fill-opacity="1" fill-rule="nonzero"/><path fill="#000000" d="M 61.363281 11.609375 C 61.363281 10.953125 60.90625 10.46875 60.292969 10.46875 C 59.722656 10.46875 59.269531 10.90625 59.21875 11.507812 C 58.667969 10.855469 57.808594 10.46875 56.769531 10.46875 C 54.515625 10.46875 52.875 12.296875 52.875 14.808594 C 52.875 17.324219 54.515625 19.152344 56.769531 19.152344 C 57.78125 19.152344 58.621094 18.789062 59.171875 18.148438 L 59.171875 18.417969 C 59.164062 19.769531 58.351562 20.675781 57.144531 20.675781 C 56.625 20.675781 56.160156 20.507812 55.800781 20.1875 C 55.664062 20.066406 55.542969 19.925781 55.445312 19.769531 C 55.109375 19.25 54.429688 19.109375 53.925781 19.453125 C 53.421875 19.800781 53.285156 20.503906 53.621094 21.023438 C 53.832031 21.351562 54.085938 21.648438 54.371094 21.902344 C 55.136719 22.582031 56.097656 22.941406 57.144531 22.941406 C 59.5625 22.941406 61.320312 21.070312 61.359375 18.484375 L 61.363281 17.996094 Z M 57.175781 17.089844 C 55.960938 17.089844 55.101562 16.136719 55.101562 14.8125 C 55.101562 13.488281 55.976562 12.515625 57.175781 12.515625 C 58.378906 12.515625 59.203125 13.453125 59.203125 14.8125 C 59.203125 16.167969 58.394531 17.089844 57.175781 17.089844 Z M 57.175781 17.089844 " fill-opacity="1" fill-rule="nonzero"/></svg>