<svg xmlns="http://www.w3.org/2000/svg" xmlns:xlink="http://www.w3.org/1999/xlink" width="101" zoomAndPan="magnify" viewBox="0 0 75.75 30.000001" height="40" preserveAspectRatio="xMidYMid meet" version="1.0"><defs><clipPath id="c0ba0df74d"><path d="M 1.101562 0 L 74.40625 0 L 74.40625 29.03125 L 1.101562 29.03125 Z M 1.101562 0 " clip-rule="nonzero"/></clipPath><clipPath id="e2a8c70a13"><path d="M 25.746094 0.726562 L 40 0.726562 L 40 15 L 25.746094 15 Z M 25.746094 0.726562 " clip-rule="nonzero"/></clipPath><clipPath id="ecc608ebba"><path d="M 60 1 L 71.472656 1 L 71.472656 14 L 60 14 Z M 60 1 " clip-rule="nonzero"/></clipPath><clipPath id="38e0e1b1e2"><path d="M 66 15 L 71.308594 15 L 71.308594 27 L 66 27 Z M 66 15 " clip-rule="nonzero"/></clipPath><clipPath id="8372753850"><path d="M 38 18 L 49 18 L 49 28.578125 L 38 28.578125 Z M 38 18 " clip-rule="nonzero"/></clipPath></defs><g clip-path="url(#c0ba0df74d)"><path fill="#ffffff" d="M 1.101562 0 L 74.40625 0 L 74.40625 29.03125 L 1.101562 29.03125 Z M 1.101562 0 " fill-opacity="1" fill-rule="nonzero"/><path fill="#ffffff" d="M 1.101562 0 L 74.40625 0 L 74.40625 29.03125 L 1.101562 29.03125 Z M 1.101562 0 " fill-opacity="1" fill-rule="nonzero"/></g><path fill="#0060af" d="M 32.421875 11.421875 C 32.421875 10.863281 32.429688 9.363281 32.414062 9.175781 C 32.425781 6.945312 30.789062 5.371094 29.757812 5.496094 C 29.039062 5.554688 28.441406 5.84375 28.117188 6.675781 C 27.820312 7.453125 28.085938 8.484375 29.078125 8.726562 C 30.140625 8.984375 30.761719 9.203125 31.207031 9.507812 C 31.757812 9.882812 32.207031 10.59375 32.21875 11.425781 " fill-opacity="1" fill-rule="nonzero"/><g clip-path="url(#e2a8c70a13)"><path fill="#0060af" d="M 32.847656 14.816406 C 30.976562 14.816406 29.054688 14.359375 27.132812 13.457031 L 27.085938 13.433594 L 27.0625 13.386719 C 26.203125 11.582031 25.746094 9.609375 25.746094 7.679688 C 25.746094 5.753906 26.183594 3.867188 27.046875 2.066406 L 27.070312 2.019531 L 27.117188 1.996094 C 28.894531 1.160156 30.804688 0.738281 32.796875 0.738281 C 34.65625 0.738281 36.640625 1.207031 38.535156 2.101562 L 38.582031 2.121094 L 38.605469 2.171875 C 39.484375 4.007812 39.945312 5.976562 39.945312 7.875 C 39.945312 9.765625 39.5 11.65625 38.621094 13.488281 L 38.597656 13.539062 L 38.550781 13.558594 C 36.800781 14.382812 34.828125 14.816406 32.847656 14.816406 M 27.3125 13.207031 C 29.175781 14.078125 31.035156 14.515625 32.847656 14.515625 C 34.765625 14.515625 36.675781 14.101562 38.375 13.3125 C 39.21875 11.535156 39.644531 9.703125 39.644531 7.875 C 39.644531 6.039062 39.199219 4.128906 38.355469 2.347656 C 36.515625 1.488281 34.597656 1.035156 32.796875 1.035156 C 30.867188 1.035156 29.015625 1.441406 27.292969 2.242188 C 26.46875 3.988281 26.046875 5.816406 26.046875 7.679688 C 26.046875 9.546875 26.484375 11.460938 27.3125 13.207031 " fill-opacity="1" fill-rule="nonzero"/></g><path fill="#0060af" d="M 31.980469 11.425781 C 31.984375 10.703125 31.578125 10.070312 31.046875 9.726562 C 30.578125 9.425781 29.949219 9.226562 28.933594 8.972656 C 28.617188 8.890625 28.289062 8.714844 28.1875 8.488281 C 27.917969 8.757812 27.871094 9.363281 27.917969 9.714844 C 27.972656 10.125 28.453125 10.796875 29.179688 10.824219 C 29.621094 10.84375 30.183594 10.730469 30.453125 10.671875 C 30.914062 10.574219 31.648438 10.863281 31.765625 11.421875 " fill-opacity="1" fill-rule="nonzero"/><path fill="#0060af" d="M 32.796875 2.015625 C 31.566406 2.015625 30.503906 2.820312 30.507812 4.214844 C 30.511719 5.382812 31.460938 6.011719 31.800781 6.457031 C 32.3125 7.132812 32.589844 7.929688 32.617188 9.152344 C 32.640625 10.125 32.640625 11.085938 32.644531 11.425781 L 32.917969 11.425781 C 32.910156 11.070312 32.898438 10.050781 32.914062 9.121094 C 32.933594 7.902344 33.21875 7.132812 33.730469 6.457031 C 34.074219 6.011719 35.023438 5.382812 35.023438 4.214844 C 35.027344 2.820312 33.964844 2.015625 32.738281 2.015625 " fill-opacity="1" fill-rule="nonzero"/><path fill="#0060af" d="M 33.109375 11.421875 C 33.109375 10.863281 33.105469 9.363281 33.117188 9.175781 C 33.105469 6.945312 34.742188 5.371094 35.777344 5.496094 C 36.492188 5.554688 37.089844 5.84375 37.414062 6.675781 C 37.710938 7.453125 37.445312 8.484375 36.453125 8.726562 C 35.390625 8.984375 34.773438 9.203125 34.324219 9.507812 C 33.773438 9.882812 33.355469 10.59375 33.34375 11.425781 " fill-opacity="1" fill-rule="nonzero"/><path fill="#0060af" d="M 33.554688 11.425781 C 33.550781 10.703125 33.953125 10.070312 34.480469 9.726562 C 34.953125 9.425781 35.585938 9.226562 36.601562 8.972656 C 36.914062 8.890625 37.242188 8.714844 37.34375 8.488281 C 37.613281 8.757812 37.664062 9.363281 37.617188 9.714844 C 37.558594 10.125 37.078125 10.796875 36.355469 10.824219 C 35.910156 10.84375 35.347656 10.730469 35.082031 10.671875 C 34.617188 10.574219 33.882812 10.863281 33.765625 11.421875 " fill-opacity="1" fill-rule="nonzero"/><path fill="#0060af" d="M 33.933594 13.746094 L 33.777344 12.605469 L 34.15625 12.550781 C 34.25 12.539062 34.359375 12.554688 34.40625 12.609375 C 34.457031 12.671875 34.472656 12.71875 34.480469 12.800781 C 34.496094 12.898438 34.464844 13.007812 34.355469 13.066406 L 34.355469 13.070312 C 34.480469 13.070312 34.554688 13.15625 34.574219 13.304688 C 34.578125 13.335938 34.589844 13.414062 34.578125 13.476562 C 34.554688 13.625 34.464844 13.675781 34.308594 13.695312 Z M 34.175781 13.542969 C 34.222656 13.535156 34.269531 13.535156 34.304688 13.511719 C 34.359375 13.476562 34.355469 13.398438 34.347656 13.34375 C 34.328125 13.21875 34.292969 13.171875 34.164062 13.191406 L 34.078125 13.203125 L 34.132812 13.546875 Z M 34.097656 13.015625 C 34.148438 13.007812 34.214844 13 34.246094 12.953125 C 34.257812 12.921875 34.277344 12.898438 34.265625 12.828125 C 34.25 12.742188 34.222656 12.691406 34.117188 12.710938 L 34.015625 12.726562 L 34.054688 13.019531 " fill-opacity="1" fill-rule="nonzero"/><path fill="#0060af" d="M 35.578125 13.0625 C 35.582031 13.082031 35.585938 13.105469 35.585938 13.128906 C 35.617188 13.335938 35.578125 13.507812 35.34375 13.554688 C 34.996094 13.621094 34.929688 13.40625 34.867188 13.105469 L 34.835938 12.945312 C 34.785156 12.65625 34.765625 12.4375 35.105469 12.371094 C 35.296875 12.335938 35.421875 12.414062 35.476562 12.601562 C 35.484375 12.628906 35.496094 12.65625 35.5 12.6875 L 35.289062 12.726562 C 35.265625 12.65625 35.234375 12.53125 35.140625 12.542969 C 34.972656 12.5625 35.027344 12.769531 35.046875 12.855469 L 35.109375 13.167969 C 35.125 13.261719 35.164062 13.414062 35.308594 13.382812 C 35.429688 13.359375 35.375 13.175781 35.367188 13.101562 " fill-opacity="1" fill-rule="nonzero"/><path fill="#0060af" d="M 35.914062 13.40625 L 35.839844 12.226562 L 36.121094 12.140625 L 36.707031 13.167969 L 36.488281 13.234375 L 36.347656 12.972656 L 36.105469 13.046875 L 36.136719 13.339844 Z M 36.082031 12.855469 L 36.261719 12.804688 L 36.027344 12.328125 " fill-opacity="1" fill-rule="nonzero"/><path fill="#0060af" d="M 29 12.515625 C 29.089844 12.238281 29.167969 12.03125 29.5 12.121094 C 29.679688 12.171875 29.792969 12.25 29.785156 12.457031 C 29.785156 12.503906 29.769531 12.550781 29.757812 12.59375 L 29.550781 12.539062 C 29.578125 12.421875 29.597656 12.332031 29.453125 12.289062 C 29.292969 12.246094 29.25 12.441406 29.230469 12.527344 L 29.144531 12.835938 C 29.117188 12.929688 29.085938 13.078125 29.230469 13.117188 C 29.347656 13.148438 29.421875 13.035156 29.464844 12.867188 L 29.316406 12.828125 L 29.367188 12.648438 L 29.710938 12.757812 L 29.546875 13.355469 L 29.390625 13.3125 L 29.425781 13.183594 L 29.421875 13.183594 C 29.347656 13.289062 29.261719 13.300781 29.183594 13.285156 C 28.839844 13.191406 28.875 12.972656 28.957031 12.675781 " fill-opacity="1" fill-rule="nonzero"/><path fill="#0060af" d="M 30.273438 13.019531 L 30.171875 13.503906 L 29.941406 13.453125 L 30.1875 12.320312 L 30.582031 12.410156 C 30.8125 12.460938 30.882812 12.5625 30.851562 12.773438 C 30.832031 12.890625 30.773438 13.023438 30.625 13.011719 C 30.75 13.054688 30.757812 13.113281 30.738281 13.222656 C 30.726562 13.265625 30.664062 13.542969 30.707031 13.589844 L 30.710938 13.621094 L 30.46875 13.5625 C 30.460938 13.484375 30.492188 13.347656 30.507812 13.269531 C 30.519531 13.203125 30.542969 13.105469 30.472656 13.070312 C 30.417969 13.042969 30.398438 13.042969 30.335938 13.03125 Z M 30.316406 12.84375 L 30.46875 12.882812 C 30.566406 12.898438 30.617188 12.847656 30.636719 12.734375 C 30.652344 12.632812 30.632812 12.589844 30.546875 12.570312 L 30.378906 12.535156 " fill-opacity="1" fill-rule="nonzero"/><path fill="#0060af" d="M 31.761719 12.574219 L 31.992188 12.601562 L 31.894531 13.394531 C 31.84375 13.648438 31.746094 13.757812 31.46875 13.722656 C 31.183594 13.6875 31.113281 13.558594 31.132812 13.304688 L 31.230469 12.511719 L 31.464844 12.535156 L 31.363281 13.3125 C 31.351562 13.398438 31.332031 13.523438 31.484375 13.539062 C 31.621094 13.546875 31.648438 13.460938 31.664062 13.351562 " fill-opacity="1" fill-rule="nonzero"/><path fill="#0060af" d="M 32.246094 13.765625 L 32.3125 12.628906 L 32.753906 12.648438 C 32.964844 12.660156 33.019531 12.828125 33.011719 12.988281 C 33.003906 13.085938 32.972656 13.195312 32.886719 13.253906 C 32.816406 13.304688 32.726562 13.316406 32.644531 13.3125 L 32.5 13.304688 L 32.472656 13.78125 Z M 32.507812 13.132812 L 32.621094 13.136719 C 32.71875 13.140625 32.78125 13.105469 32.789062 12.964844 C 32.792969 12.832031 32.742188 12.8125 32.621094 12.804688 L 32.527344 12.800781 " fill-opacity="1" fill-rule="nonzero"/><path fill="#0060af" d="M 63.335938 3.117188 L 61.582031 6.269531 C 60.921875 5.734375 60.113281 5.34375 59.085938 5.34375 C 56.644531 5.34375 55.65625 7.144531 55.65625 8.414062 C 55.65625 9.355469 56.277344 10.746094 58.445312 10.746094 C 59.359375 10.746094 60.652344 10.117188 61.023438 9.832031 L 59.292969 13.488281 C 58.464844 13.652344 58.195312 13.753906 57.496094 13.777344 C 53.613281 13.890625 52.042969 11.527344 52.046875 9.109375 C 52.046875 5.917969 54.914062 2.03125 59.660156 2.03125 C 59.953125 2.03125 60.308594 2.132812 60.613281 2.242188 L 60.921875 1.851562 " fill-opacity="1" fill-rule="nonzero"/><g clip-path="url(#ecc608ebba)"><path fill="#0060af" d="M 70.5625 1.949219 L 71.058594 13.40625 L 67.367188 13.40625 L 67.367188 11.441406 L 64.847656 11.441406 L 64.019531 13.40625 L 60.015625 13.40625 L 64.203125 5.226562 L 63.257812 5.21875 L 65.050781 1.949219 Z M 67.339844 5.457031 L 65.917969 8.789062 L 67.382812 8.789062 " fill-opacity="1" fill-rule="nonzero"/></g><path fill="#0060af" d="M 49.714844 1.949219 C 51.542969 1.960938 52.574219 2.945312 52.574219 4.367188 C 52.574219 5.675781 51.484375 6.835938 50.289062 7.4375 C 51.519531 7.882812 51.628906 8.984375 51.628906 9.765625 C 51.628906 11.648438 49.722656 13.40625 47.246094 13.40625 L 41.839844 13.40625 L 43.949219 5.339844 L 43.082031 5.335938 L 44.851562 1.949219 C 44.851562 1.949219 48.226562 1.941406 49.714844 1.949219 M 47.921875 6.597656 C 48.296875 6.597656 48.964844 6.5 49.132812 5.777344 C 49.316406 4.988281 48.691406 4.964844 48.390625 4.964844 L 47.316406 4.960938 L 46.941406 6.597656 Z M 46.402344 8.621094 L 45.90625 10.503906 L 47.171875 10.503906 C 47.667969 10.503906 48.347656 10.257812 48.515625 9.644531 C 48.679688 9.03125 48.203125 8.621094 47.707031 8.621094 " fill-opacity="1" fill-rule="nonzero"/><path fill="#00a6b5" d="M 49.355469 17.386719 C 49.355469 17.367188 49.679688 15.378906 49.699219 15.285156 L 49.707031 15.234375 L 51.199219 15.234375 C 52.019531 15.234375 52.691406 15.242188 52.691406 15.246094 C 52.691406 15.25 52.613281 15.734375 52.515625 16.316406 C 52.417969 16.898438 52.339844 17.382812 52.339844 17.390625 C 52.339844 17.402344 51.78125 17.410156 50.847656 17.410156 C 49.703125 17.410156 49.355469 17.402344 49.355469 17.386719 Z M 49.355469 17.386719 " fill-opacity="1" fill-rule="nonzero"/><path fill="#00a6b5" d="M 36.386719 17.355469 C 36.390625 17.328125 36.472656 16.839844 36.566406 16.273438 L 36.738281 15.246094 L 38.234375 15.242188 L 39.730469 15.234375 L 39.71875 15.285156 C 39.714844 15.3125 39.632812 15.800781 39.539062 16.367188 L 39.367188 17.398438 L 37.871094 17.402344 L 36.375 17.410156 Z M 36.386719 17.355469 " fill-opacity="1" fill-rule="nonzero"/><g clip-path="url(#38e0e1b1e2)"><path fill="#00a6b5" d="M 66.535156 26.003906 C 66.539062 25.980469 66.949219 23.613281 67.445312 20.742188 L 68.347656 15.523438 L 71.308594 15.523438 L 71.308594 15.605469 C 71.308594 15.667969 69.621094 25.488281 69.53125 25.949219 L 69.511719 26.042969 L 66.527344 26.042969 Z M 66.535156 26.003906 " fill-opacity="1" fill-rule="nonzero"/></g><path fill="#00a6b5" d="M 47.859375 26.023438 C 47.859375 25.988281 49.164062 18.40625 49.171875 18.390625 C 49.175781 18.382812 49.847656 18.378906 50.664062 18.378906 C 52.039062 18.378906 52.144531 18.378906 52.144531 18.40625 C 52.144531 18.429688 51.136719 24.351562 50.851562 25.984375 L 50.84375 26.042969 L 49.351562 26.042969 C 48.238281 26.042969 47.859375 26.039062 47.859375 26.023438 Z M 47.859375 26.023438 " fill-opacity="1" fill-rule="nonzero"/><path fill="#00a6b5" d="M 34.890625 26.011719 C 34.894531 25.996094 35.1875 24.292969 35.539062 22.226562 C 35.894531 20.164062 36.1875 18.453125 36.191406 18.425781 L 36.203125 18.378906 L 37.695312 18.378906 C 38.875 18.378906 39.183594 18.382812 39.183594 18.398438 C 39.183594 18.414062 38.890625 20.136719 38.53125 22.226562 L 37.875 26.035156 L 36.378906 26.039062 C 34.960938 26.042969 34.886719 26.042969 34.890625 26.011719 Z M 34.890625 26.011719 " fill-opacity="1" fill-rule="nonzero"/><path fill="#00a6b5" d="M 54.378906 26.097656 C 53.953125 26.066406 53.621094 26.007812 53.386719 25.921875 C 52.992188 25.777344 52.757812 25.5 52.671875 25.066406 C 52.636719 24.90625 52.636719 24.84375 52.644531 24.515625 C 52.652344 24.152344 52.683594 23.875 52.757812 23.476562 C 52.777344 23.371094 52.910156 22.601562 53.050781 21.761719 C 53.191406 20.921875 53.308594 20.21875 53.316406 20.195312 L 53.324219 20.15625 L 52.789062 20.15625 C 52.289062 20.15625 52.25 20.152344 52.253906 20.125 C 52.253906 20.105469 52.320312 19.707031 52.398438 19.238281 L 52.542969 18.386719 L 53.652344 18.378906 L 53.761719 17.753906 C 53.820312 17.410156 53.914062 16.878906 53.96875 16.570312 L 54.066406 16.007812 L 55.53125 16.007812 C 56.335938 16.007812 56.992188 16.015625 56.992188 16.023438 C 56.992188 16.027344 56.898438 16.558594 56.785156 17.203125 L 56.582031 18.367188 L 57.296875 18.375 L 58.015625 18.378906 L 58.003906 18.425781 C 58 18.453125 57.9375 18.832031 57.863281 19.265625 C 57.789062 19.699219 57.726562 20.078125 57.722656 20.105469 L 57.710938 20.15625 L 56.992188 20.15625 C 56.5625 20.15625 56.273438 20.160156 56.273438 20.171875 C 56.273438 20.179688 56.160156 20.851562 56.015625 21.667969 C 55.746094 23.234375 55.71875 23.410156 55.746094 23.515625 C 55.773438 23.617188 55.867188 23.730469 55.964844 23.777344 C 56.144531 23.867188 56.285156 23.890625 56.671875 23.890625 L 57.03125 23.890625 L 57.019531 23.929688 C 57.015625 23.953125 56.945312 24.414062 56.863281 24.957031 C 56.78125 25.5 56.710938 25.96875 56.703125 26 L 56.695312 26.054688 L 56.164062 26.078125 C 55.460938 26.105469 54.648438 26.117188 54.378906 26.097656 Z M 54.378906 26.097656 " fill-opacity="1" fill-rule="nonzero"/><path fill="#00a6b5" d="M 58.308594 25.949219 C 58.074219 25.832031 58.042969 25.808594 57.894531 25.660156 C 57.730469 25.488281 57.632812 25.339844 57.550781 25.125 C 57.449219 24.871094 57.429688 24.671875 57.460938 24.230469 C 57.492188 23.777344 57.550781 23.546875 57.722656 23.207031 C 57.828125 23.003906 57.921875 22.875 58.148438 22.644531 C 58.570312 22.207031 59.019531 21.941406 59.628906 21.761719 C 59.886719 21.6875 60.785156 21.53125 61.558594 21.429688 C 62.425781 21.316406 62.902344 21.222656 63.082031 21.132812 C 63.203125 21.070312 63.339844 20.917969 63.386719 20.789062 C 63.460938 20.582031 63.402344 20.335938 63.253906 20.21875 C 63.171875 20.15625 62.925781 20.078125 62.695312 20.046875 C 62.457031 20.011719 62.066406 20.078125 61.828125 20.195312 C 61.695312 20.257812 61.535156 20.425781 61.464844 20.574219 C 61.433594 20.644531 61.402344 20.714844 61.394531 20.734375 C 61.386719 20.761719 61.300781 20.765625 59.9375 20.765625 L 58.488281 20.765625 L 58.496094 20.707031 C 58.644531 19.871094 59.125 19.210938 59.890625 18.796875 C 60.570312 18.425781 61.460938 18.242188 62.761719 18.207031 C 63.847656 18.175781 64.863281 18.324219 65.441406 18.597656 C 65.773438 18.753906 66.039062 18.988281 66.164062 19.230469 C 66.292969 19.484375 66.371094 19.867188 66.371094 20.246094 C 66.371094 20.515625 66.355469 20.730469 66.300781 21.117188 C 66.261719 21.378906 65.621094 25.089844 65.609375 25.109375 C 65.605469 25.113281 65.59375 25.1875 65.582031 25.265625 C 65.546875 25.527344 65.621094 25.761719 65.789062 25.917969 C 65.863281 25.992188 65.867188 25.996094 65.851562 26.066406 L 65.835938 26.140625 L 65.582031 26.132812 C 65.441406 26.132812 64.75 26.113281 64.046875 26.089844 L 62.761719 26.050781 L 62.757812 25.644531 L 62.753906 25.234375 L 62.644531 25.328125 C 62.15625 25.734375 61.527344 26.039062 60.910156 26.167969 C 60 26.339844 59.066406 26.332031 58.308594 25.949219 Z M 61.613281 24.570312 C 61.785156 24.542969 62.003906 24.460938 62.160156 24.363281 C 62.648438 24.0625 62.921875 23.550781 63.027344 22.746094 C 63.03125 22.703125 63.03125 22.667969 63.027344 22.667969 C 63.023438 22.667969 62.960938 22.691406 62.890625 22.71875 C 62.628906 22.828125 62.304688 22.921875 62.011719 22.980469 C 61.519531 23.082031 61.1875 23.179688 60.964844 23.296875 C 60.835938 23.363281 60.695312 23.515625 60.625 23.667969 C 60.574219 23.773438 60.566406 23.8125 60.5625 23.964844 C 60.554688 24.125 60.558594 24.144531 60.605469 24.230469 C 60.660156 24.335938 60.722656 24.394531 60.839844 24.453125 C 61.054688 24.566406 61.359375 24.613281 61.613281 24.570312 Z M 61.613281 24.570312 " fill-opacity="1" fill-rule="nonzero"/><g clip-path="url(#8372753850)"><path fill="#00a6b5" d="M 41.785156 28.554688 C 41.042969 28.492188 40.46875 28.363281 40.046875 28.160156 C 39.675781 27.980469 39.324219 27.695312 39.125 27.402344 C 38.96875 27.175781 38.851562 26.835938 38.824219 26.535156 C 38.820312 26.464844 38.820312 26.398438 38.832031 26.386719 C 38.847656 26.363281 39.03125 26.363281 40.285156 26.398438 C 41.078125 26.421875 41.753906 26.445312 41.796875 26.449219 C 41.867188 26.457031 41.871094 26.460938 41.882812 26.535156 C 41.90625 26.707031 41.980469 26.796875 42.164062 26.890625 C 42.300781 26.964844 42.441406 26.984375 42.710938 26.972656 C 43.0625 26.957031 43.3125 26.871094 43.535156 26.691406 C 43.769531 26.503906 44.035156 25.953125 44.078125 25.574219 C 44.085938 25.511719 44.117188 25.324219 44.148438 25.15625 C 44.179688 24.988281 44.203125 24.847656 44.199219 24.84375 C 44.199219 24.84375 44.136719 24.886719 44.066406 24.941406 C 43.53125 25.347656 42.9375 25.585938 42.296875 25.648438 C 42.070312 25.667969 41.554688 25.65625 41.335938 25.621094 C 40.789062 25.535156 40.25 25.253906 39.882812 24.863281 C 39.394531 24.335938 39.121094 23.535156 39.160156 22.722656 C 39.195312 21.949219 39.324219 21.378906 39.621094 20.695312 C 39.851562 20.15625 40.15625 19.671875 40.507812 19.296875 C 41.101562 18.664062 41.820312 18.289062 42.714844 18.152344 C 43.019531 18.105469 43.476562 18.109375 43.710938 18.160156 C 44.367188 18.304688 44.894531 18.652344 45.210938 19.15625 C 45.300781 19.296875 45.3125 19.3125 45.320312 19.273438 C 45.328125 19.25 45.363281 19.046875 45.402344 18.828125 C 45.441406 18.605469 45.476562 18.402344 45.484375 18.375 L 45.492188 18.324219 L 48.125 18.324219 L 48.117188 18.363281 C 48.109375 18.386719 47.867188 19.789062 47.570312 21.484375 C 46.933594 25.15625 46.96875 24.960938 46.859375 25.386719 C 46.601562 26.425781 46.394531 26.871094 45.929688 27.40625 C 45.632812 27.746094 45.152344 28.074219 44.71875 28.230469 C 44.417969 28.335938 43.839844 28.457031 43.304688 28.523438 C 42.964844 28.5625 42.105469 28.582031 41.785156 28.554688 Z M 43.554688 23.527344 C 43.777344 23.472656 43.96875 23.363281 44.121094 23.207031 C 44.410156 22.914062 44.625 22.484375 44.707031 22.046875 C 44.75 21.816406 44.761719 21.320312 44.730469 21.167969 C 44.664062 20.863281 44.550781 20.664062 44.351562 20.519531 C 44.15625 20.375 44.039062 20.34375 43.75 20.347656 C 43.246094 20.351562 42.945312 20.511719 42.683594 20.917969 C 42.480469 21.230469 42.359375 21.550781 42.28125 21.976562 C 42.242188 22.195312 42.238281 22.261719 42.246094 22.488281 C 42.253906 22.703125 42.261719 22.773438 42.300781 22.894531 C 42.417969 23.261719 42.679688 23.5 43.042969 23.566406 C 43.160156 23.585938 43.394531 23.570312 43.554688 23.527344 Z M 43.554688 23.527344 " fill-opacity="1" fill-rule="nonzero"/></g><path fill="#00a6b5" d="M 28.429688 26.230469 C 27.40625 26.089844 26.703125 25.511719 26.339844 24.515625 C 26.160156 24.015625 26.121094 23.507812 26.199219 22.617188 C 26.234375 22.195312 26.371094 21.660156 26.589844 21.070312 C 26.757812 20.621094 26.859375 20.414062 27.109375 20.019531 C 27.75 19.019531 28.558594 18.417969 29.570312 18.199219 C 30.1875 18.066406 31.089844 18.191406 31.558594 18.472656 C 31.730469 18.578125 31.964844 18.796875 32.09375 18.96875 C 32.140625 19.035156 32.183594 19.085938 32.191406 19.082031 C 32.199219 19.082031 32.34375 18.273438 32.511719 17.289062 L 32.820312 15.496094 L 35.8125 15.488281 L 35.804688 15.527344 C 35.800781 15.550781 35.390625 17.910156 34.898438 20.773438 C 34.40625 23.636719 34 25.996094 33.992188 26.011719 C 33.984375 26.042969 33.90625 26.042969 32.640625 26.042969 L 31.296875 26.042969 L 31.308594 26.003906 C 31.3125 25.980469 31.347656 25.773438 31.386719 25.539062 C 31.425781 25.308594 31.464844 25.097656 31.46875 25.074219 C 31.476562 25.039062 31.417969 25.089844 31.246094 25.265625 C 30.886719 25.621094 30.472656 25.917969 30.148438 26.046875 C 29.960938 26.121094 29.664062 26.195312 29.433594 26.230469 C 29.207031 26.265625 28.675781 26.265625 28.429688 26.230469 Z M 30.453125 24.050781 C 30.785156 23.96875 31.050781 23.789062 31.265625 23.503906 C 31.371094 23.363281 31.484375 23.171875 31.546875 23.03125 C 31.761719 22.546875 31.859375 21.730469 31.757812 21.3125 C 31.703125 21.082031 31.613281 20.902344 31.484375 20.773438 C 31.296875 20.578125 31.074219 20.503906 30.730469 20.523438 C 30.371094 20.539062 30.132812 20.640625 29.855469 20.890625 C 29.707031 21.023438 29.476562 21.414062 29.359375 21.726562 C 29.230469 22.082031 29.148438 22.621094 29.160156 23.035156 C 29.171875 23.339844 29.203125 23.484375 29.304688 23.691406 C 29.398438 23.875 29.585938 24.019531 29.8125 24.082031 C 29.933594 24.113281 30.261719 24.097656 30.453125 24.050781 Z M 30.453125 24.050781 " fill-opacity="1" fill-rule="nonzero"/></svg>