<svg xmlns="http://www.w3.org/2000/svg" xmlns:xlink="http://www.w3.org/1999/xlink" width="101" zoomAndPan="magnify" viewBox="0 0 75.75 30.000001" height="40" preserveAspectRatio="xMidYMid meet" version="1.0"><defs><clipPath id="52bc320b2f"><path d="M 21.222656 6.46875 L 72.757812 6.46875 L 72.757812 22.4375 L 21.222656 22.4375 Z M 21.222656 6.46875 " clip-rule="nonzero"/></clipPath></defs><g clip-path="url(#52bc320b2f)"><path fill="#4b2489" d="M 35.40625 19.933594 C 34.613281 20.683594 33.707031 21.257812 32.6875 21.65625 C 31.667969 22.054688 30.613281 22.246094 29.515625 22.230469 C 28.417969 22.246094 27.355469 22.058594 26.332031 21.660156 C 25.304688 21.261719 24.394531 20.6875 23.59375 19.933594 C 23.21875 19.574219 22.882812 19.175781 22.589844 18.75 C 22.292969 18.320312 22.042969 17.863281 21.839844 17.386719 C 21.632812 16.90625 21.480469 16.410156 21.375 15.902344 C 21.273438 15.390625 21.21875 14.875 21.21875 14.355469 C 21.21875 13.835938 21.273438 13.320312 21.375 12.8125 C 21.480469 12.300781 21.632812 11.808594 21.839844 11.328125 C 22.042969 10.847656 22.292969 10.394531 22.589844 9.964844 C 22.882812 9.535156 23.21875 9.140625 23.59375 8.777344 C 24.394531 8.019531 25.304688 7.441406 26.332031 7.042969 C 27.359375 6.644531 28.421875 6.453125 29.523438 6.46875 C 30.617188 6.457031 31.675781 6.648438 32.695312 7.042969 C 33.714844 7.441406 34.621094 8.015625 35.414062 8.765625 C 35.789062 9.125 36.125 9.523438 36.421875 9.953125 C 36.71875 10.378906 36.96875 10.835938 37.171875 11.3125 C 37.375 11.792969 37.53125 12.289062 37.632812 12.796875 C 37.738281 13.308594 37.792969 13.824219 37.792969 14.34375 C 37.792969 14.863281 37.738281 15.378906 37.632812 15.890625 C 37.53125 16.398438 37.375 16.894531 37.171875 17.371094 C 36.96875 17.851562 36.71875 18.304688 36.421875 18.734375 C 36.125 19.164062 35.789062 19.558594 35.414062 19.921875 M 29.523438 9.039062 C 29.175781 9.035156 28.828125 9.066406 28.484375 9.132812 C 28.144531 9.199219 27.808594 9.296875 27.488281 9.429688 C 27.164062 9.566406 26.859375 9.730469 26.570312 9.925781 C 26.28125 10.121094 26.015625 10.339844 25.769531 10.589844 C 25.527344 10.839844 25.308594 11.109375 25.121094 11.402344 C 24.933594 11.695312 24.773438 12 24.648438 12.324219 C 24.523438 12.648438 24.429688 12.984375 24.375 13.324219 C 24.316406 13.667969 24.292969 14.011719 24.304688 14.359375 C 24.304688 14.699219 24.335938 15.035156 24.40625 15.371094 C 24.472656 15.703125 24.570312 16.027344 24.699219 16.339844 C 24.832031 16.65625 24.992188 16.953125 25.183594 17.234375 C 25.371094 17.519531 25.585938 17.78125 25.828125 18.019531 C 26.070312 18.261719 26.335938 18.476562 26.617188 18.664062 C 26.902344 18.851562 27.203125 19.011719 27.519531 19.140625 C 27.835938 19.273438 28.160156 19.371094 28.496094 19.4375 C 28.832031 19.503906 29.167969 19.535156 29.511719 19.535156 C 29.851562 19.535156 30.191406 19.503906 30.527344 19.4375 C 30.863281 19.371094 31.1875 19.273438 31.503906 19.140625 C 31.820312 19.011719 32.117188 18.851562 32.402344 18.664062 C 32.6875 18.476562 32.949219 18.261719 33.191406 18.019531 C 33.433594 17.78125 33.648438 17.519531 33.839844 17.234375 C 34.03125 16.953125 34.191406 16.65625 34.320312 16.339844 C 34.453125 16.027344 34.550781 15.703125 34.617188 15.371094 C 34.683594 15.035156 34.71875 14.699219 34.71875 14.359375 C 34.730469 14.015625 34.707031 13.671875 34.648438 13.328125 C 34.589844 12.988281 34.5 12.65625 34.375 12.332031 C 34.25 12.007812 34.09375 11.703125 33.90625 11.410156 C 33.71875 11.117188 33.503906 10.847656 33.261719 10.597656 C 33.019531 10.351562 32.753906 10.128906 32.464844 9.933594 C 32.179688 9.738281 31.875 9.574219 31.550781 9.4375 C 31.230469 9.304688 30.902344 9.203125 30.558594 9.136719 C 30.21875 9.070312 29.871094 9.035156 29.523438 9.039062 M 54.953125 8.324219 L 48.589844 22.4375 L 48.226562 22.371094 C 46.40625 22.042969 46.039062 21.59375 45.191406 19.753906 L 40.417969 9.421875 L 38.625 9.421875 L 38.625 6.914062 L 45.402344 6.914062 L 45.402344 9.421875 L 43.785156 9.421875 L 47.621094 17.972656 L 51.339844 9.421875 L 49.332031 9.421875 L 49.332031 6.914062 L 54.953125 6.914062 Z M 70.34375 19.933594 C 69.945312 20.300781 69.519531 20.625 69.058594 20.914062 C 68.597656 21.199219 68.117188 21.441406 67.613281 21.636719 C 67.105469 21.832031 66.589844 21.980469 66.054688 22.082031 C 65.523438 22.179688 64.984375 22.230469 64.441406 22.230469 C 63.902344 22.230469 63.363281 22.179688 62.832031 22.082031 C 62.296875 21.980469 61.777344 21.832031 61.273438 21.636719 C 60.769531 21.441406 60.285156 21.199219 59.828125 20.914062 C 59.367188 20.625 58.9375 20.300781 58.539062 19.933594 C 58.164062 19.574219 57.828125 19.175781 57.535156 18.75 C 57.238281 18.320312 56.988281 17.863281 56.785156 17.386719 C 56.578125 16.90625 56.425781 16.410156 56.320312 15.902344 C 56.21875 15.390625 56.164062 14.875 56.164062 14.355469 C 56.164062 13.835938 56.21875 13.320312 56.320312 12.8125 C 56.425781 12.300781 56.578125 11.808594 56.785156 11.328125 C 56.988281 10.847656 57.238281 10.394531 57.535156 9.964844 C 57.828125 9.535156 58.164062 9.140625 58.539062 8.777344 C 58.9375 8.414062 59.367188 8.085938 59.828125 7.800781 C 60.285156 7.515625 60.769531 7.273438 61.273438 7.078125 C 61.777344 6.878906 62.296875 6.734375 62.832031 6.632812 C 63.363281 6.53125 63.902344 6.484375 64.441406 6.484375 C 64.984375 6.484375 65.523438 6.53125 66.054688 6.632812 C 66.589844 6.734375 67.105469 6.878906 67.613281 7.078125 C 68.117188 7.273438 68.597656 7.515625 69.058594 7.800781 C 69.519531 8.085938 69.945312 8.414062 70.34375 8.777344 C 70.722656 9.140625 71.058594 9.535156 71.355469 9.964844 C 71.652344 10.394531 71.902344 10.847656 72.109375 11.324219 C 72.3125 11.804688 72.46875 12.300781 72.570312 12.808594 C 72.675781 13.320312 72.730469 13.835938 72.730469 14.355469 C 72.730469 14.878906 72.675781 15.394531 72.570312 15.902344 C 72.46875 16.414062 72.3125 16.90625 72.109375 17.386719 C 71.902344 17.867188 71.652344 18.320312 71.355469 18.75 C 71.058594 19.179688 70.722656 19.574219 70.34375 19.933594 M 64.488281 9.039062 C 64.140625 9.035156 63.792969 9.066406 63.449219 9.132812 C 63.109375 9.199219 62.773438 9.296875 62.453125 9.429688 C 62.128906 9.566406 61.824219 9.730469 61.535156 9.925781 C 61.246094 10.117188 60.976562 10.339844 60.734375 10.589844 C 60.488281 10.839844 60.273438 11.109375 60.082031 11.402344 C 59.894531 11.691406 59.738281 12 59.609375 12.324219 C 59.484375 12.648438 59.390625 12.984375 59.332031 13.324219 C 59.273438 13.667969 59.25 14.011719 59.261719 14.359375 C 59.261719 14.699219 59.296875 15.035156 59.363281 15.371094 C 59.429688 15.703125 59.527344 16.027344 59.660156 16.339844 C 59.789062 16.65625 59.949219 16.953125 60.140625 17.234375 C 60.332031 17.519531 60.546875 17.78125 60.789062 18.019531 C 61.03125 18.261719 61.292969 18.476562 61.578125 18.664062 C 61.863281 18.851562 62.160156 19.011719 62.476562 19.140625 C 62.792969 19.273438 63.117188 19.371094 63.453125 19.4375 C 63.789062 19.503906 64.128906 19.535156 64.46875 19.535156 C 64.8125 19.535156 65.148438 19.503906 65.484375 19.4375 C 65.820312 19.371094 66.144531 19.273438 66.460938 19.140625 C 66.777344 19.011719 67.078125 18.851562 67.363281 18.664062 C 67.644531 18.476562 67.910156 18.261719 68.152344 18.019531 C 68.394531 17.78125 68.609375 17.519531 68.796875 17.234375 C 68.988281 16.953125 69.148438 16.65625 69.28125 16.339844 C 69.410156 16.027344 69.507812 15.703125 69.574219 15.371094 C 69.644531 15.035156 69.675781 14.699219 69.675781 14.359375 C 69.6875 14.015625 69.667969 13.671875 69.609375 13.328125 C 69.550781 12.988281 69.460938 12.65625 69.335938 12.332031 C 69.210938 12.007812 69.054688 11.703125 68.867188 11.410156 C 68.679688 11.117188 68.464844 10.847656 68.222656 10.601562 C 67.980469 10.351562 67.714844 10.128906 67.429688 9.933594 C 67.140625 9.738281 66.839844 9.574219 66.515625 9.441406 C 66.195312 9.304688 65.863281 9.203125 65.523438 9.136719 C 65.183594 9.070312 64.835938 9.035156 64.488281 9.039062 " fill-opacity="1" fill-rule="evenodd"/></g></svg>